<?xml version="1.0" encoding="iso-8859-1"?>
<!-- Uploaded to: SVG Repo, www.svgrepo.com, Generator: SVG Repo Mixer Tools -->
<svg fill="#000000" height="800px" width="800px" version="1.1" id="Layer_1" xmlns="http://www.w3.org/2000/svg" xmlns:xlink="http://www.w3.org/1999/xlink" 
	 viewBox="0 0 512 512" xml:space="preserve">
<g>
	<g>
		<path d="M383.988,370.744c44.57,0,84.562-12.734,106.984-34.207c1.679-1.616,2.629-3.799,2.629-6.126
			c0-2.325-0.95-4.529-2.629-6.145c-22.423-21.473-62.414-34.278-106.984-34.278c-41.716,0-79.425,11.236-102.467,30.284
			l20.365-27.151c29.728-2.456,65.692-21.664,95.142-51.119c31.513-31.512,50.728-68.858,51.403-99.897
			c0.05-2.325-0.854-4.569-2.5-6.215c-1.646-1.65-3.924-2.616-6.216-2.5c-31.047,0.675-68.393,19.885-99.902,51.399
			c-30.775,30.772-50.3,67.093-51.804,97.696l-23.238,30.272v-25.039c27.73-29.884,44.762-83.869,44.762-141.733
			c0-58.977-17.29-113.95-45.549-143.46c-3.217-3.366-8.974-3.366-12.191,0c-28.259,29.509-46.283,84.483-46.283,143.46
			c0,56.751,16.598,109.776,42.196,139.989v26.783l-21.747-29.707c-1.296-30.709-20.076-67.296-51.041-98.26
			c-31.038-31.043-69.184-50.736-99.765-51.399c-2.441-0.108-4.508,0.85-6.149,2.5c-1.646,1.646-2.516,3.891-2.466,6.216
			c0.675,31.042,19.902,68.389,51.415,99.898c29.782,29.791,64.785,48.403,94.751,50.94l23.274,30.859h-1.156
			c-22.455-21.331-62.35-33.967-106.807-33.967c-44.566,0-84.562,12.897-106.984,34.369c-1.683,1.616-2.633,3.881-2.633,6.206
			c0,2.327,0.95,4.57,2.633,6.187c22.423,21.473,62.418,34.136,106.984,34.136c41.297,0,78.635-10.668,101.737-29.866h14.759
			L220.01,373.7c-20.808,2.043-44.845,15.098-65.251,35.513c-21.885,21.881-35.234,47.985-35.705,69.749
			c-0.05,2.325,0.854,4.762,2.5,6.403c1.6,1.6,3.77,2.687,6.033,2.687c0.063,0,0.121,0,0.183,0c21.756,0,47.82-13.982,69.714-35.871
			c21.022-21.015,33.599-45.958,35.024-67.18l15.199-21.06v139.527c0,4.716,3.82,8.532,8.532,8.532c4.712,0,8.532-3.816,8.532-8.532
			V363.941l15.995,20.616c1.301,21.302,14.705,46.491,35.841,67.624c21.894,21.889,48.224,35.871,69.984,35.871
			c0.063,0,0.121,0,0.183,0c2.262,0,4.433-1.067,6.033-2.666c1.646-1.641,2.55-3.975,2.5-6.299
			c-0.471-21.764-13.819-47.87-35.709-69.751c-20.315-20.323-44.229-33.451-64.97-35.58L270.1,340.868h12.152
			C305.355,360.066,342.696,370.744,383.988,370.744z M383.988,307.063c34.988,0,67.489,8.808,87.728,23.389
			c-20.24,14.582-52.74,23.389-87.728,23.389c-34.988,0-67.484-8.807-87.732-23.389C316.504,315.871,349,307.063,383.988,307.063z
			 M351.879,196.854c24.739-24.739,53.949-41.487,78.579-45.491c-4.004,24.627-20.756,53.832-45.495,78.575
			c-24.735,24.739-53.944,41.487-78.575,45.495C310.392,250.802,327.14,221.593,351.879,196.854z M130.036,229.938
			c-24.739-24.739-41.487-53.948-45.491-78.575c24.627,4.004,53.836,20.752,78.575,45.491
			c24.739,24.743,41.491,53.948,45.495,78.579C183.981,271.426,154.771,254.677,130.036,229.938z M214.802,331.09
			c-20.296,14.192-52.321,22.752-86.786,22.752c-34.988,0-67.484-8.807-87.732-23.389c20.248-14.582,52.744-23.389,87.732-23.389
			c34.633,0,66.808,8.639,87.087,22.956C214.989,330.371,214.872,330.719,214.802,331.09z M185.418,439.949
			c-15.119,15.115-32.659,25.722-47.941,29.347c3.629-15.282,14.236-32.821,29.347-47.936
			c15.111-15.115,32.651-25.722,47.945-29.355C211.14,407.294,200.533,424.834,185.418,439.949z M258.089,270.492
			c-21.698-27.789-34.913-74.342-34.913-124.508c0-50.162,13.211-96.715,34.913-124.516c21.702,27.801,34.913,74.355,34.913,124.516
			C293.002,196.15,279.787,242.704,258.089,270.492z M347.534,421.359c15.115,15.115,25.722,32.655,29.351,47.936
			c-15.286-3.625-32.826-14.232-47.945-29.347c-15.111-15.115-25.718-32.655-29.347-47.945
			C314.883,395.637,332.423,406.244,347.534,421.359z"/>
	</g>
</g>
</svg>