<svg xmlns="http://www.w3.org/2000/svg" xmlns:xlink="http://www.w3.org/1999/xlink" width="500" zoomAndPan="magnify" viewBox="0 0 375 374.999991" height="500" preserveAspectRatio="xMidYMid meet" version="1.0"><defs><clipPath id="0e9dcae0cf"><path d="M 37 126 L 330 126 L 330 247 L 37 247 Z M 37 126 " clip-rule="nonzero"/></clipPath><clipPath id="24d900ddc9"><path d="M 94.707031 78.121094 L 345 164.40625 L 287.800781 330.324219 L 37.507812 244.039062 Z M 94.707031 78.121094 " clip-rule="nonzero"/></clipPath><clipPath id="9705f75e90"><path d="M 93.96875 77.871094 L 345.683594 164.644531 L 288.484375 330.5625 L 36.773438 243.789062 Z M 93.96875 77.871094 " clip-rule="nonzero"/></clipPath><clipPath id="9652361b02"><path d="M 77 148 L 288 148 L 288 204 L 77 204 Z M 77 148 " clip-rule="nonzero"/></clipPath><clipPath id="e9fd175fe9"><path d="M 94.707031 78.121094 L 345 164.40625 L 287.800781 330.324219 L 37.507812 244.039062 Z M 94.707031 78.121094 " clip-rule="nonzero"/></clipPath><clipPath id="b5c6ea2aa4"><path d="M 93.96875 77.871094 L 345.683594 164.644531 L 288.484375 330.5625 L 36.773438 243.789062 Z M 93.96875 77.871094 " clip-rule="nonzero"/></clipPath></defs><rect x="-37.5" width="450" fill="#ffffff" y="-37.499999" height="449.999989" fill-opacity="1"/><rect x="-37.5" width="450" fill="#ffffff" y="-37.499999" height="449.999989" fill-opacity="1"/><rect x="-37.5" width="450" fill="#ffffff" y="-37.499999" height="449.999989" fill-opacity="1"/><g clip-path="url(#0e9dcae0cf)"><g clip-path="url(#24d900ddc9)"><g clip-path="url(#9705f75e90)"><path fill="#89aa2f" d="M 38.34375 239.230469 C 47.25 223.390625 59.085938 209.746094 73.242188 198.6875 C 74.125 195.78125 75.578125 192.953125 77.523438 190.410156 C 94.738281 154.953125 134.78125 139.5 171.046875 131.542969 C 191.351562 127.125 211.636719 124.839844 232.398438 128.070312 C 252.234375 131.222656 271.527344 138.707031 287.679688 150.816406 C 308.03125 166.277344 319 187.898438 328.929688 210.828125 C 330.179688 213.757812 326.457031 216.28125 324.3125 213.875 C 292.894531 179.136719 243.195312 203.992188 209.296875 220.257812 C 191.183594 229 172.585938 236.742188 152.515625 238.746094 C 134.15625 240.621094 114.199219 238.855469 97.289062 231.007812 C 88.800781 227.007812 81.003906 221.347656 75.753906 213.472656 C 75.683594 213.328125 75.617188 213.1875 75.546875 213.042969 C 64.503906 221.964844 55.117188 232.644531 47.917969 244.910156 C 47.085938 246.289062 45.269531 246.378906 44 245.582031 C 42.410156 244.675781 40.925781 243.808594 39.300781 243.011719 C 37.742188 242.355469 37.691406 240.433594 38.34375 239.230469 Z M 38.34375 239.230469 " fill-opacity="1" fill-rule="nonzero"/></g></g></g><g clip-path="url(#9652361b02)"><g clip-path="url(#e9fd175fe9)"><g clip-path="url(#b5c6ea2aa4)"><path fill="#f6fbed" d="M 80.234375 203.238281 C 80.234375 203.238281 80.984375 202.785156 82.34375 201.945312 C 83.703125 201.105469 85.777344 199.917969 88.460938 198.34375 C 93.679688 195.269531 101.363281 191.257812 110.582031 186.585938 C 119.910156 181.949219 130.90625 176.9375 142.96875 172.296875 C 149 169.972656 155.246094 167.726562 161.769531 165.691406 C 168.191406 163.625 174.855469 161.878906 181.484375 160.238281 C 188.113281 158.597656 194.738281 156.957031 201.433594 155.816406 C 208.128906 154.675781 214.675781 153.957031 221.039062 153.773438 C 227.441406 153.480469 233.660156 153.722656 239.519531 154.3125 C 245.375 154.90625 250.839844 155.957031 255.800781 157.429688 C 260.796875 158.796875 265.1875 160.546875 269.007812 162.222656 C 269.929688 162.65625 270.847656 163.09375 271.765625 163.527344 C 272.6875 163.964844 273.464844 164.46875 274.277344 164.871094 C 275.902344 165.667969 277.246094 166.605469 278.660156 167.332031 C 281.203125 168.921875 283.105469 170.292969 284.449219 171.230469 C 285.789062 172.167969 286.421875 172.742188 286.421875 172.742188 C 286.8125 172.996094 287.308594 172.929688 287.5625 172.542969 C 287.816406 172.152344 287.75 171.65625 287.46875 171.4375 C 287.46875 171.4375 286.832031 170.863281 285.527344 169.820312 C 284.222656 168.773438 282.355469 167.296875 279.886719 165.496094 C 278.617188 164.699219 277.203125 163.617188 275.613281 162.714844 C 274.839844 162.207031 273.953125 161.667969 273.140625 161.265625 C 272.222656 160.832031 271.339844 160.289062 270.457031 159.746094 C 266.636719 157.714844 262.214844 155.714844 257.078125 154.0625 C 252.085938 152.34375 246.414062 150.863281 240.414062 149.984375 C 234.347656 148.964844 227.992188 148.4375 221.273438 148.261719 C 214.664062 148.125 207.765625 148.484375 200.71875 149.265625 C 193.78125 150.085938 186.765625 151.117188 179.785156 152.753906 C 172.90625 154.425781 166.09375 156.597656 159.53125 158.734375 C 152.933594 160.980469 146.617188 163.441406 140.511719 165.976562 C 134.40625 168.511719 128.621094 171.15625 123.191406 173.804688 C 117.761719 176.449219 112.6875 179.101562 108.039062 181.542969 C 98.816406 186.570312 91.269531 191.226562 86.117188 194.445312 C 83.542969 196.054688 81.539062 197.386719 80.140625 198.332031 C 78.746094 199.277344 78.101562 199.769531 78.101562 199.769531 C 77.171875 200.398438 76.980469 201.644531 77.609375 202.574219 C 77.992188 203.539062 79.195312 203.835938 80.234375 203.238281 Z M 80.234375 203.238281 " fill-opacity="1" fill-rule="nonzero"/></g></g></g></svg>